HIERARCHY
ROOT hip
{
	OFFSET 0.000000 0.000000 0.000000 
	CHANNELS 6 Xposition Yposition Zposition Xrotation Zrotation Yrotation
	JOINT abdomen
	{
		OFFSET 0.000000 3.402643 0.000000 
		CHANNELS 3 Xrotation Zrotation Yrotation
		JOINT chest
		{
			OFFSET 0.000000 8.438565 -0.680529 
			CHANNELS 3 Xrotation Zrotation Yrotation
			JOINT neck
			{
				OFFSET 0.000000 10.207942 -0.272212 
				CHANNELS 3 Xrotation Zrotation Yrotation
				JOINT head
				{
					OFFSET 0.000000 3.130431 0.000000 
					CHANNELS 3 Xrotation Zrotation Yrotation
					End Site
					{
						OFFSET 0.000000 3.130435 0.000000 
					}
				}
			}
			JOINT lCollar
			{
				OFFSET 3.470700 6.669187 -0.816635 
				CHANNELS 3 Yrotation Zrotation Xrotation
				JOINT lShldr
				{
					OFFSET 3.198488 0.000000 0.000000 
					CHANNELS 3 Zrotation Yrotation Xrotation
					JOINT lForeArm
					{
						OFFSET 10.139888 0.000000 0.000000 
						CHANNELS 3 Yrotation Zrotation Xrotation
						JOINT lHand
						{
							OFFSET 8.370511 0.000000 0.000000 
							CHANNELS 3 Zrotation Yrotation Xrotation
							End Site
							{
								OFFSET 4.083176 0.000000 0.000000 
							}
						}
					}
				}
			}
			JOINT rCollar
			{
				OFFSET -3.470700 6.669187 -0.816635 
				CHANNELS 3 Yrotation Zrotation Xrotation
				JOINT rShldr
				{
					OFFSET -3.198488 0.000000 0.000000 
					CHANNELS 3 Zrotation Yrotation Xrotation
					JOINT rForeArm
					{
						OFFSET -10.139888 0.000000 0.000000 
						CHANNELS 3 Yrotation Zrotation Xrotation
						JOINT rHand
						{
							OFFSET -8.370511 0.000000 0.000000 
							CHANNELS 3 Zrotation Yrotation Xrotation
							End Site
							{
								OFFSET -4.083176 0.000000 0.000000 
							}
						}
					}
				}
			}
		}
	}
	JOINT lThigh
	{
		OFFSET 5.308129 -1.633274 1.361059 
		CHANNELS 3 Xrotation Zrotation Yrotation
		JOINT lShin
		{
			OFFSET -2.041588 -20.007561 0.000000 
			CHANNELS 3 Xrotation Zrotation Yrotation
			JOINT lFoot
			{
				OFFSET 0.000000 -19.190928 -1.224953 
				CHANNELS 3 Xrotation Yrotation Zrotation
				End Site
				{
					OFFSET 0.000000 -2.449906 4.627600 
				}
			}
		}
	}
	JOINT rThigh
	{
		OFFSET -5.308129 -1.633274 1.361059 
		CHANNELS 3 Xrotation Zrotation Yrotation
		JOINT rShin
		{
			OFFSET 2.041588 -20.007561 0.000000 
			CHANNELS 3 Xrotation Zrotation Yrotation
			JOINT rFoot
			{
				OFFSET 0.000000 -19.190928 -1.224953 
				CHANNELS 3 Xrotation Yrotation Zrotation
				End Site
				{
					OFFSET 0.000000 -2.449906 4.627600 
				}
			}
		}
	}
}
MOTION
Frames: 8
Frame Time: 0.033333
11.489281 50.473412 2.563395 0.341306 -9.787808 -5.609331 0.000000 0.000000 0.000000 1.617022 -1.093241 1.748288 12.732649 -0.683546 -0.673897 7.812542 -1.220351 -1.377473 -0.991869 6.070486 2.169601 -6.162872 -4.782496 -17.539917 -0.087364 -2.766048 9.386064 8.009914 1.446471 -3.602484 3.729415 -7.479225 2.222109 4.561454 -6.262289 -3.409800 -0.474173 4.232095 5.346247 10.866819 6.490617 -2.425401 -5.368694 8.881189 7.230641 15.723844 -3.340538 8.742198 -10.672158 -0.312874 3.322437 -14.998496 -21.869329 -19.569271 93.014389 -1.044094 18.204277 7.521001 0.323631 4.551806 
11.524575 50.477566 2.462328 0.012533 -9.627537 -5.895015 0.000000 0.000000 0.000000 1.874308 -0.966332 1.777585 12.837345 -0.556615 -0.546944 7.780373 -1.816045 -1.143242 -0.943755 5.981579 2.395037 -6.192070 -4.851063 -17.746552 -0.084749 -2.697146 9.473388 7.334897 1.448614 -3.583897 3.790675 -7.297040 2.448028 4.235786 -5.775613 -3.601917 -0.466719 4.252255 5.483315 10.712998 6.248282 -2.458232 -4.969315 8.658412 7.209926 15.427186 -3.362211 8.994625 -10.436635 -0.325173 3.346880 -16.199133 -22.150791 -19.589846 94.642929 -1.189709 18.764944 7.323513 0.339022 4.427531 
11.544425 50.482315 2.369644 -0.230087 -9.582989 -6.220856 0.000000 0.000000 0.000000 2.016750 -0.790643 1.757915 12.785920 -0.498040 -0.312573 8.342014 -1.845435 -0.977314 -0.902147 6.040422 2.533061 -6.358111 -4.756326 -17.711674 -0.098445 -2.830973 8.740886 7.381481 1.786475 -3.578460 3.898110 -7.117768 2.584290 4.087480 -5.224910 -3.901147 -0.466262 4.291740 5.297554 10.730334 6.279666 -2.461093 -4.667613 8.592375 7.358233 15.176603 -3.428063 9.413149 -10.256137 -0.294610 3.381722 -17.431318 -22.361971 -19.772800 95.887764 -1.318268 18.485895 7.437075 0.347308 4.509612 
11.555360 50.509491 2.274582 -0.200490 -9.520797 -6.437541 0.000000 0.000000 0.000000 1.942859 -0.663760 1.728626 12.833405 -0.322263 -0.244192 8.495958 -2.060340 -0.811076 -0.944923 6.293495 2.465059 -6.620933 -4.601875 -17.544024 -0.081672 -2.862123 9.181245 7.112668 1.708953 -3.574631 3.882780 -6.801352 2.493637 3.908706 -4.774247 -4.070633 -0.455717 4.332004 5.239127 10.852253 6.188965 -2.466121 -4.481399 8.541856 7.446572 14.651671 -3.545993 9.631751 -9.926413 -0.290346 3.488837 -18.787930 -22.770115 -20.213804 97.122505 -1.394597 18.293180 7.547874 0.331303 4.574118 
11.563141 50.506527 2.223945 -0.393545 -9.508519 -6.575583 0.000000 0.000000 0.000000 1.968681 -0.468549 1.679711 12.920775 -0.263670 -0.185590 8.836036 -2.011532 -0.781797 -1.047421 6.327811 2.495181 -6.714680 -4.514722 -17.443037 -0.090148 -3.004216 8.390281 6.493948 2.050415 -3.558987 3.939155 -6.475098 2.511641 3.588156 -4.477708 -3.967063 -0.447488 4.381593 5.582160 11.027260 6.234767 -2.439473 -4.284534 8.479044 7.475329 14.605728 -3.557000 9.828988 -9.886639 -0.301516 3.515475 -19.704287 -23.370975 -20.776049 98.288139 -1.405391 18.813965 7.369709 0.310221 4.448465 
11.537210 50.487392 2.130162 -0.447022 -9.693599 -6.540349 0.000000 0.000000 0.000000 2.006232 -0.205005 1.533193 12.909795 0.068358 -0.302734 9.169073 -2.284979 -0.713492 -1.185338 6.692675 2.536093 -6.963007 -4.509943 -17.424105 -0.089783 -3.052330 8.263507 6.484558 2.196749 -3.551805 3.881265 -5.977248 2.538641 3.249845 -4.204721 -3.983548 -0.447897 4.440446 5.513997 10.984724 6.309643 -2.429469 -4.646754 8.618513 7.329363 15.160068 -3.341120 10.038954 -10.013958 -0.306182 3.341607 -20.527027 -23.739338 -21.526724 98.924568 -1.366718 18.823574 7.369565 0.308299 4.458074 
11.509090 50.465561 2.052621 -0.572258 -9.852654 -6.840631 0.000000 0.000000 0.000000 2.138672 0.000000 1.621094 12.987668 0.224609 -0.156249 9.246567 -2.265454 -0.703734 -1.084310 6.744402 2.654826 -6.932946 -4.654689 -17.771152 -0.090465 -2.983263 8.253246 6.741165 2.164074 -3.547879 3.988184 -5.526281 2.634206 2.997540 -3.961489 -4.089067 -0.428019 4.471802 5.347728 10.742856 6.239963 -2.456917 -4.853670 8.642331 7.150304 15.667582 -2.997920 10.640486 -10.134786 -0.261395 3.007715 -21.395142 -23.873060 -21.694521 98.959221 -1.219063 19.158737 7.366886 0.318208 4.461146 
11.497152 50.458046 1.970051 -0.707380 -9.956091 -7.447485 0.000000 0.000000 0.000000 2.252318 0.195213 1.826195 12.960016 0.302733 0.195361 10.034385 -2.187361 -0.645180 -0.852961 6.773698 2.753098 -6.897899 -4.766383 -17.973850 -0.082530 -2.960908 8.086960 6.633272 2.167101 -3.550780 4.329036 -5.093123 2.729086 2.840194 -3.710278 -4.466375 -0.423354 4.374143 5.660812 10.621306 6.117749 -2.483396 -4.793910 8.464273 6.921556 15.832192 -2.598550 11.683497 -10.147776 -0.231557 2.665550 -22.411495 -23.709433 -21.321272 98.186920 -1.111370 18.677118 7.776021 0.384032 4.738678 
